<?xml version="1.0" encoding="UTF-8"?><svg id="Layer_2" xmlns="http://www.w3.org/2000/svg" viewBox="0 0 1540.99 304.8"><defs><style>.cls-1{fill:#222;stroke-width:0px;}</style></defs><g id="Wordmark"><g id="Wordmark-2"><polygon class="cls-1" points="214.04 133.73 43.25 133.73 43.25 10.44 0 10.44 0 299.93 43.25 299.93 43.25 174.22 214.04 174.22 214.04 299.93 257.29 299.93 257.29 10.44 214.04 10.44 214.04 133.73"/><path class="cls-1" d="M407.04,128.04c28.34,0,48.22,14.58,57.67,42.26h-116c8.17-26.9,29.39-42.26,58.55-42.26M407.26,92.36c-58.66,0-102.96,45.68-102.96,106.16-1.18,57.49,44.48,105.05,101.97,106.23,1.55.03,3.09.03,4.64,0,69.82,0,94.23-46.84,97.33-63.25l.44-2.54h-40.1l-.61,1.22c-.5,1.05-13.7,26.51-57.06,26.51-35.68,0-62.2-25.19-65.18-61.53h164.61v-2.21c0-65.12-42.53-110.47-103.4-110.47"/><path class="cls-1" d="M649.09,266.68c-38.17,0-64.85-28.06-64.85-68.11s26.68-68.16,64.85-68.16,64.13,28,64.13,68.16-26.35,68.11-64.13,68.11M712.39,124.56c-10-13.81-32.81-32.2-70.1-32.2-58.99,0-100.14,43.69-100.14,106.22s41.15,106.16,100.14,106.16c27.48.84,53.64-11.78,70.1-33.8v29h40.88V0h-40.88v124.56Z"/><path class="cls-1" d="M904.55,128.04c28.28,0,48.22,14.58,57.61,42.26h-116c8.18-26.9,29.39-42.26,58.61-42.26M904.78,92.36c-58.72,0-103.02,45.68-103.02,106.16-1.18,57.49,44.48,105.05,101.97,106.23,1.55.03,3.09.03,4.64,0,69.82,0,94.23-46.84,97.33-63.25l.44-2.54h-40.1l-.55,1.22c-.55,1.05-13.81,26.51-57.11,26.51-35.68,0-62.14-25.19-65.12-61.53h164.88v-2.21c0-65.12-42.53-110.47-103.35-110.47"/><path class="cls-1" d="M1095.07,126.66v-29.5h-40.93v202.72h40.93v-114.17c0-35.46,18.5-49.27,66.28-49.27h52.81v-40.88h-51.98c-40.49,0-58.88,17.95-66.89,31.1"/><path class="cls-1" d="M1395.77,198.52c0,39.49-26.13,68.16-62.09,68.16s-63.69-28-63.69-68.16,26.35-68.11,63.85-68.11,62.09,28.67,62.09,68.11M1395.11,124.67c-8.01-11.05-28.39-32.31-68.11-32.31-49.16,0-98.93,36.46-98.93,106.16,0,62.53,40.65,106.22,98.93,106.22,26.89,1.06,52.49-11.5,68.11-33.42v28.78h40.88V97.16h-40.88v27.51Z"/><polygon class="cls-1" points="1475.59 103.18 1486.8 103.18 1486.8 128.54 1491 128.54 1491 103.18 1502.21 103.18 1502.21 99.32 1475.59 99.32 1475.59 103.18"/><polygon class="cls-1" points="1534.53 99.32 1524.86 122.4 1515.2 99.32 1508.62 99.32 1508.62 128.54 1512.6 128.54 1512.6 103.18 1523.32 128.7 1526.19 128.7 1536.79 103.4 1536.79 128.54 1540.99 128.54 1540.99 99.32 1534.53 99.32"/></g></g></svg>